<svg width="64" height="64" viewBox="0 0 64 64" fill="none" xmlns="http://www.w3.org/2000/svg">
<g clip-path="url(#clip0_25_28)">
<path d="M26.1462 0.904521C25.4027 0.123852 24.2875 -0.173546 23.2466 0.0990684C22.2057 0.371683 21.4002 1.20192 21.1276 2.24281L19.1698 9.98755L11.487 7.81902C10.4461 7.52162 9.33085 7.81902 8.57497 8.57491C7.81908 9.33079 7.52168 10.446 7.81908 11.4869L9.98761 19.1697L2.24287 21.14C1.20198 21.4002 0.384136 22.218 0.0991295 23.2589C-0.185877 24.2998 0.123913 25.4027 0.904582 26.1462L6.62949 31.7224L0.904582 37.2986C0.123913 38.0421 -0.173485 39.1573 0.0991295 40.1982C0.371744 41.2391 1.20198 42.0446 2.24287 42.3172L9.98761 44.275L7.81908 51.9578C7.52168 52.9987 7.81908 54.1139 8.57497 54.8698C9.33085 55.6257 10.4461 55.9231 11.487 55.6257L19.1698 53.4572L21.1276 61.2019C21.3879 62.2428 22.2057 63.0607 23.2466 63.3457C24.2875 63.6307 25.3903 63.3209 26.1462 62.5526L31.7224 56.8277L37.2986 62.5526C38.0545 63.3209 39.1574 63.6307 40.1983 63.3457C41.2392 63.0607 42.0446 62.2428 42.3172 61.2019L44.2751 53.4572L51.9579 55.6257C52.9988 55.9231 54.114 55.6257 54.8699 54.8698C55.6258 54.1139 55.9232 52.9987 55.6258 51.9578L53.4573 44.275L61.202 42.3172C62.2429 42.0569 63.0607 41.2391 63.3457 40.1982C63.6307 39.1573 63.3209 38.0421 62.5527 37.2986L56.8278 31.7224L62.5527 26.1462C63.3209 25.3903 63.6307 24.2874 63.3457 23.2465C63.0607 22.2056 62.2429 21.4002 61.202 21.1276L53.4573 19.1697L55.6258 11.4869C55.9232 10.446 55.6258 9.33079 54.8699 8.57491C54.114 7.81902 52.9988 7.52162 51.9579 7.81902L44.2751 9.98755L42.3048 2.24281C42.0446 1.20192 41.2268 0.384075 40.1859 0.0990684C39.145 -0.185938 38.0421 0.123852 37.2986 0.904521L31.7224 6.62943L26.1462 0.904521Z" fill="#144B8B"/>
</g>
<defs>
<clipPath id="clip0_25_28">
<rect width="63.4449" height="63.4449" fill="white"/>
</clipPath>
</defs>
</svg>
