<svg width="72" height="64" viewBox="0 0 72 64" fill="none" xmlns="http://www.w3.org/2000/svg">
<g clip-path="url(#clip0_25_30)">
<path d="M36.0347 6.02237L45.7497 9.70266L35.6877 13.5688L25.6258 9.70266L35.3408 6.02237C35.5638 5.93562 35.8116 5.93562 36.0471 6.02237H36.0347ZM16.8525 11.4623V25.3656C16.6915 25.4152 16.5304 25.4647 16.3693 25.5267L4.47336 30.0372C1.78439 31.0533 0 33.6432 0 36.518V51.2888C0 54.0397 1.6233 56.5304 4.15118 57.6457L16.0471 62.8749C17.8315 63.6556 19.8513 63.6556 21.6357 62.8749L35.6877 56.6915L49.7522 62.8749C51.5366 63.6556 53.5564 63.6556 55.3408 62.8749L67.2367 57.6457C69.7522 56.5428 71.3879 54.0397 71.3879 51.2888V36.5304C71.3879 33.6432 69.6035 31.0657 66.9145 30.0372L55.0186 25.5267C54.8575 25.4647 54.6964 25.4152 54.5353 25.3656V11.4623C54.5353 8.57503 52.7509 5.99758 50.062 4.96908L38.166 0.458548C36.5799 -0.136248 34.8327 -0.136248 33.2466 0.458548L21.3507 4.96908C18.6369 5.99758 16.8525 8.58742 16.8525 11.4623ZM48.575 26.0967L38.3643 29.9629V18.9096L48.575 14.9939V26.0967ZM19.1822 31.0905L28.8972 34.7708L18.8352 38.6246L8.77323 34.7708L18.4882 31.0905C18.7113 31.0038 18.9591 31.0038 19.1945 31.0905H19.1822ZM21.5118 56.4189V43.9654L31.7224 40.0496V51.9331L21.5118 56.4189ZM52.1933 31.0905C52.4164 31.0038 52.6642 31.0038 52.8996 31.0905L62.6146 34.7708L52.5403 38.6246L42.4783 34.7708L52.1933 31.0905ZM64.8327 52.1934L55.2169 56.4189V43.9654L65.4275 40.0496V51.2888C65.4275 51.6853 65.1921 52.0323 64.8327 52.1934Z" fill="#144B8B"/>
</g>
<defs>
<clipPath id="clip0_25_30">
<rect width="71.3755" height="63.4449" fill="white"/>
</clipPath>
</defs>
</svg>
