<svg width="72" height="64" viewBox="0 0 72 64" fill="none" xmlns="http://www.w3.org/2000/svg">
<g clip-path="url(#clip0_25_32)">
<path d="M0 13.9406V52.3297C0 54.5601 1.25155 56.6667 3.34573 57.4474C14.1264 61.4746 24.9071 58.7237 35.6877 55.9728C45.5762 53.4573 55.4647 50.9294 65.3408 53.6308C68.1908 54.4114 71.3755 52.4536 71.3755 49.492V11.0905C71.3755 8.86001 70.1239 6.75344 68.0297 5.97277C57.2491 1.97029 46.4684 4.72122 35.6877 7.47215C25.7993 9.98764 15.9108 12.5031 6.0347 9.80177C3.17224 9.0211 0 10.979 0 13.9406ZM35.6877 43.6184C30.2107 43.6184 25.7745 38.29 25.7745 31.7225C25.7745 25.1549 30.2107 19.8266 35.6877 19.8266C41.1648 19.8266 45.601 25.1549 45.601 31.7225C45.601 38.29 41.1648 43.6184 35.6877 43.6184ZM7.93061 43.6184C12.3048 43.6184 15.8612 47.1748 15.8612 51.549H7.93061V43.6184ZM15.8612 17.8439C15.8612 22.2181 12.3048 25.7745 7.93061 25.7745V17.8439H15.8612ZM63.4449 37.6704V45.601H55.5143C55.5143 41.2268 59.0706 37.6704 63.4449 37.6704ZM55.5143 11.8959H63.4449V19.8266C59.0706 19.8266 55.5143 16.2702 55.5143 11.8959Z" fill="#144B8B"/>
</g>
<defs>
<clipPath id="clip0_25_32">
<rect width="71.3755" height="63.4449" fill="white"/>
</clipPath>
</defs>
</svg>
