<svg width="72" height="64" viewBox="0 0 72 64" fill="none" xmlns="http://www.w3.org/2000/svg">
<g clip-path="url(#clip0_25_34)">
<path d="M39.2689 2.23048C38.6121 0.86741 37.2243 0 35.7001 0C34.176 0 32.8005 0.86741 32.1313 2.23048L24.1636 18.6245L6.36926 21.2516C4.88227 21.4746 3.64312 22.5155 3.18463 23.9405C2.72614 25.3656 3.09789 26.9393 4.16356 27.9926L17.0756 40.7683L14.0273 58.8228C13.7794 60.3098 14.399 61.8216 15.6258 62.7014C16.8525 63.5812 18.4758 63.6927 19.8141 62.9864L35.7125 54.4981L51.6109 62.9864C52.9492 63.6927 54.5725 63.5936 55.7992 62.7014C57.026 61.8092 57.6456 60.3098 57.3978 58.8228L54.337 40.7683L67.2491 27.9926C68.3147 26.9393 68.6989 25.3656 68.228 23.9405C67.7571 22.5155 66.5304 21.4746 65.0434 21.2516L47.2367 18.6245L39.2689 2.23048Z" fill="#144B8B"/>
</g>
<defs>
<clipPath id="clip0_25_34">
<rect width="71.3755" height="63.4449" fill="white"/>
</clipPath>
</defs>
</svg>
