<svg width="64" height="64" viewBox="0 0 64 64" fill="none" xmlns="http://www.w3.org/2000/svg">
<g clip-path="url(#clip0_25_36)">
<path d="M38.8352 4.07693C42.057 4.72129 44.1512 7.85636 43.5068 11.0782L43.2218 12.4908C42.5651 15.7994 41.3507 18.9468 39.653 21.8093H57.4969C60.7807 21.8093 63.4449 24.4735 63.4449 27.7572C63.4449 30.0497 62.1437 32.0447 60.2354 33.036C61.5861 34.1265 62.4535 35.7994 62.4535 37.6705C62.4535 40.5701 60.3718 42.9865 57.6332 43.5069C58.1784 44.4115 58.4882 45.4648 58.4882 46.5924C58.4882 49.2318 56.7658 51.4747 54.3866 52.243C54.4734 52.6519 54.5229 53.0856 54.5229 53.5317C54.5229 56.8155 51.8587 59.4797 48.575 59.4797H36.4932C34.1388 59.4797 31.8463 58.7857 29.8885 57.4846L25.1177 54.3C21.8092 52.0943 19.8265 48.3768 19.8265 44.3991V39.6531V33.7052V30.6197C19.8265 27.0013 21.4746 23.5937 24.2875 21.326L25.2045 20.5949C28.4882 17.9679 30.7311 14.2752 31.549 10.1612L31.834 8.74855C32.4783 5.52674 35.6134 3.43257 38.8352 4.07693ZM3.9653 23.7919H11.8959C14.0892 23.7919 15.8612 25.5639 15.8612 27.7572V55.5144C15.8612 57.7077 14.0892 59.4797 11.8959 59.4797H3.9653C1.772 59.4797 0 57.7077 0 55.5144V27.7572C0 25.5639 1.772 23.7919 3.9653 23.7919Z" fill="#144B8B"/>
</g>
<defs>
<clipPath id="clip0_25_36">
<rect width="63.4449" height="63.4449" fill="white"/>
</clipPath>
</defs>
</svg>
